<mxfile host="65bd71144e">
    <diagram id="9IJD3KNzoi9KUDQQ_WB0" name="ページ1">
        <mxGraphModel dx="1371" dy="577" grid="1" gridSize="10" guides="1" tooltips="1" connect="1" arrows="1" fold="1" page="1" pageScale="1" pageWidth="827" pageHeight="1169" math="0" shadow="0">
            <root>
                <mxCell id="0"/>
                <mxCell id="1" parent="0"/>
                <mxCell id="8" value="w-w" style="sketch=0;points=[[0,0,0],[0.25,0,0],[0.5,0,0],[0.75,0,0],[1,0,0],[1,0.25,0],[1,0.5,0],[1,0.75,0],[1,1,0],[0.75,1,0],[0.5,1,0],[0.25,1,0],[0,1,0],[0,0.75,0],[0,0.5,0],[0,0.25,0]];rounded=1;absoluteArcSize=1;arcSize=2;html=1;strokeColor=none;gradientColor=none;shadow=0;dashed=0;fontSize=12;fontColor=#9E9E9E;align=left;verticalAlign=top;spacing=10;spacingTop=-4;fillColor=#F3E5F5;" parent="1" vertex="1">
                    <mxGeometry x="160" y="80" width="970" height="330" as="geometry"/>
                </mxCell>
                <mxCell id="9" value="frontend app" style="sketch=0;points=[[0,0,0],[0.25,0,0],[0.5,0,0],[0.75,0,0],[1,0,0],[1,0.25,0],[1,0.5,0],[1,0.75,0],[1,1,0],[0.75,1,0],[0.5,1,0],[0.25,1,0],[0,1,0],[0,0.75,0],[0,0.5,0],[0,0.25,0]];rounded=1;absoluteArcSize=1;arcSize=2;html=1;strokeColor=none;gradientColor=none;shadow=0;dashed=0;fontSize=12;fontColor=#9E9E9E;align=left;verticalAlign=top;spacing=10;spacingTop=-4;fillColor=#E1F5FE;" parent="1" vertex="1">
                    <mxGeometry x="350" y="141" width="260" height="179" as="geometry"/>
                </mxCell>
                <mxCell id="7" value="backend API" style="sketch=0;points=[[0,0,0],[0.25,0,0],[0.5,0,0],[0.75,0,0],[1,0,0],[1,0.25,0],[1,0.5,0],[1,0.75,0],[1,1,0],[0.75,1,0],[0.5,1,0],[0.25,1,0],[0,1,0],[0,0.75,0],[0,0.5,0],[0,0.25,0]];rounded=1;absoluteArcSize=1;arcSize=2;html=1;strokeColor=none;gradientColor=none;shadow=0;dashed=0;fontSize=12;fontColor=#9E9E9E;align=left;verticalAlign=top;spacing=10;spacingTop=-4;fillColor=#F1F8E9;" parent="1" vertex="1">
                    <mxGeometry x="630" y="141" width="450" height="199" as="geometry"/>
                </mxCell>
                <mxCell id="2" value="" style="dashed=0;outlineConnect=0;html=1;align=center;labelPosition=center;verticalLabelPosition=bottom;verticalAlign=top;shape=mxgraph.weblogos.github" parent="1" vertex="1">
                    <mxGeometry x="442.5" y="220" width="75" height="75" as="geometry"/>
                </mxCell>
                <mxCell id="3" value="" style="shape=image;verticalLabelPosition=bottom;labelBackgroundColor=#ffffff;verticalAlign=top;aspect=fixed;imageAspect=0;image=data:image/png,iVBORw0KGgoAAAANSUhEUgAAALQAAABcCAYAAADH2p/dAAAJ+UlEQVR4Ae2dX4xcVR3HN8HwxEODiZEXHjQ++VBN4UETyswYW4MLIeWBrQlPRVdftGL6BrqWmSLuZlEKiUsFlmRrEImtrIkrUqi1JttA7BKraUsUTECktGzpvbtLd3bnmO+Z+d6evTNzuy33zsy58z3J3XP/nj/f3+f89nfv3D8DA0pSQApIASkgBaSAFJACUkAKSAEpIAWkgBSQAlJACkgBKSAFpIAUkALdU6C4Z+nWUmXhR6VKcKBYDl+pT8F8qRIaTf2pATkAE4VK+D0w0j1C11Fz4cGggMYK2P4E9urtHhwAO+tArDO7FPYs3FmshG+6HdrxxOLqT174yMy8XjXH31qxU7BklPpYAXIAJsDG0N6FmstMsRIeB0udobZFLYURs6FUCZ9mo74+Gq5MHrlo3j1f62OzqetXogBYeezFiwbskCMw1QK3bFcBZowoNmLyyMWaPPCVmFL7ugqAHTBEnqy3HjEbsqW4UboL8+BYWMO/EiUpkIYCfzm1YsAUwAbUHQGaYcbtY6F543+rafRDZUiBSAEwBbYa3jrb8ANBO/8tyDNHNtBMygrAU5OzTE8UeTUDJ39KUiBLBcBYpqFH/TpzaAZHw1WdAGZpSpUNBcAY4+lMrlMXy8FBjBh5ZwHXKQVwSc966XJwMPUTRMY0us7cKXOqHrBG7lIFmuHGvfsWpbIU6KgCQ48urALqVMOOUiUYQaH4yVJJCnRSATBnvXQ53Jmal2b8jN/hlaRAJxUAcwAaDKYHdCU4jEJ17bmTplRdUADMWaArwWEBLSa8VyAToG0MUwm9F0cd8E8BXI9uhBzzqXloAe0fCHlqMfkT0Hmyah/3RUD3sfHz2HUBnUer9nGfBHQfGz+PXRfQebRqH/dJQPex8fPYdQGdR6v2cZ9yBfSF5dCMHNtrbnr2LjthHutapeePLZvtjy3YZ9Ie+M2SXqnQSiQP1+UK6O0z91mQNz27zWAC2MMv/7DJLNEjO2X7xLD9dQkPW+rpmiapvFuRG6Bfe+9EBDM99KaGpz45/+81hgG8RXtXVv2JYcxDCHhtJb8VyCHQ9XCjDnXdS4/97anISnxKuFiOHn+3cEMIPTIWyeTtTG6Afid8L/LQ9XDjUthx+/S3IwPxJnAATc9MEXQPdySTtzO0pV/3ciy92VJwxtAMOdwcwCM5LyaxYQYFQK4YuqWsXq2kPf0A+sJxUz36WVN96RN2Wnl9mzHV+Ujw/aemrZd2QeY8tvGJBnbaze9/Tq88jYT0eIY27X2gq/OmeviTDZiviaDGutoHh60JcPJHgOP5N2Z+YAAtOxzPEVsr+a8A7drzQNf+O9kMc8NTw2OvnrrPWmPwheHWUO+/py3MCEOyTLt37zbDw8NmcbFzT8KfPHnSbNy40QwMDNjpauo/evToZdt99uxZMzQ0ZFBfLyRvgF7914/rQP/J8c7uPOCe3WTGXv1ZS6C/tO+RtkBn+YQ6DA2YMHXK6IQZQDJlNagENBW+0hzxM6AFxBZkgO3A3fDWJ166sSXQtzzy57ZAZxluTE1NGU6AignQwbONj49bDwpvSuDpGXft2mW3bd261QAcJGyj13XXs1zuE9+Gsrds2RLVQehRFr03ysY+aAvWHTp0yObnzp2z+cTEROT10Sf8x8F+KMNtv9uWTs9746EhTOSlnVCDJ4huPvjc19ZC3aVwAwYHlIAHQML4BJNAEXIA4oIFSLAOCftgintDDpQ4NNgPQLeDLF4OykZZANo9hgOLQHOQuIMjXla8LZ1e9gpoiFM7c9BUX7n+0klhC7h/+rsvrAG6m+EGgGbsDHAACZILBZZdMLAP4eG+8OanT5++ongVkNKbtwKV7bINanh/t9440Bxg2J+DwG03y+lm7h3QVqzqvFl5rdQW6hMz168BevP4q10LNwgUc4CABKABKYBAcsEgSATO3RfzgBPl0aPbAi7zxx0kALPVsfF6uUwPjWUmAU0lUsyTQhCGHTdPDbeFefvehRRbs7YoAApv50LgQhv30O4yjol7SneZNQFMDhCuQ471rjfFOrdugsoBw2Pj67lMoFkmjsOAwLJbLsvpZu6Fh16amTYLzzzRclra/4BZ/uOnmrw1w44v/2KiLdB4BWtWKQ4l6nFBoKclJMjpNXEsPDByJECLCce4Xh3H8Hi3H+7g4Hrsx0ER387yCTBB5zKBZvvc4wU0FV5nfuHhEXPmKzcnTu/f9kWz+PjauPrYHz5tw47No/9sC3SW330hJPFuEqzZ2VkLJyABvIQN+wMkgIspHlrgeKyLr4/XA+gYmsTLZx3xcghwO6DRJx6DfZE4SN0YPd6WTi73tIeGZ67DfJM5U8KUDPaHOz9jln9/beStb53aYWG2t4o2bhflDUlDP/+wkzo31QXgXG/r7hAHy93WjXlCS4i70Yb11tnTQIeTE3WgAXPkpd35ZsA/2P55s7T/Ogv1d6fujYBmR5nf//Rf16tRJvsJ6Exkjf4b9+RP34vP/6oBNMFteOoIbq5vzsOHbjBP/npbE9D00DMv/zYbRVVqVxWgw+pJoGvBBfP+HYW1Ycc6YKY3n//O58xXR/8eQU2Ybxuf7aroqjw7BXoaaHS7+sYpM//9bzkhR7M3JsCt8n/ctdncPX4g+ld096PT5p23T2enqEruqgI9D3RX1VHl3ikgoL0zmRqcpICATlJH27xTQEB7ZzI1OEkBAZ2kjrZ5p4CA9s5kanCSAgI6SR1t804BAe2dydTgJAUEdJI62uaVAvysW6kSnE/tp++iviTrFQR5amwmH94U0HlCxK++ZAN0OTiIOEYvPvQLhjy0lq96S/Xj9aVKMAKgs3x5Sx7EVx/SV4Bvli2Vw52pxdCFB4MCgN6xb1Evi0vfZioxQQF8YgTsgcHUgEZBKBTTu+drCdVrkxRITwGwRu5ShRmFIYZB4XojfnoGU0nJCuAJfjCXavzMkcGwY3AsrOkl4smG0NaPrwAY44vsUw83CHWpHL4lL/3xjaUSLq+A81WzOfKXel7Ys3AnYxpcH1SSAlkowI9AgTUwlzrIboHFcjiJivDvIMuXumQhlMrsfQXA1OBouArGwJrLXibzhRGzoVgO5wi1PHXvQ+JLC+GZHZizCzXiI8OFGmA/c2RZX5vyhZoebCdOAMEQWGp45jkwFucu0+UG1Db8QCNw9QON0nXqHiSmR5sEVh5/8WJ0NaMBc/ZhRtLIsCeKjasfHGHf/OWieXj6I3vvx9x/Vg0mXerrUao61CxygHszwAYYIS8NkOcyPwFMAjm+DdcK+eOL21DNX/pcs7Ro1gLMZHadOQ7p1S7Xf4QJRtBY3Hpav/00OC+DNhu0XzQhB9bplcOdPQ/x1cKv46SAFJACUkAKSAEpIAWkgBSQAlJACkgBKSAFpIAUkAJSQApIASngiwL/B+HfuMMQslzhAAAAAElFTkSuQmCC;" parent="1" vertex="1">
                    <mxGeometry x="660" y="211.5" width="180" height="92" as="geometry"/>
                </mxCell>
                <mxCell id="5" value="" style="shape=image;verticalLabelPosition=bottom;labelBackgroundColor=#ffffff;verticalAlign=top;aspect=fixed;imageAspect=0;image=data:image/png,iVBORw0KGgoAAAANSUhEUgAAALQAAABcCAYAAADH2p/dAAAJ+klEQVR4Ae2d3W8c1RnG/SfkD0CVENdtbrjrBbu+SFphVK7AoKo3oY16gRJVClKvuji7UWisUEH6EdIKo6alVBH54Cs4qkBOCqiRSAJKa0I/UiyVtDLByow3drB9qme8z87Zye56PefMzq7nGWmyZ2bOec77Puc3Z8/OruKREW1yQA7IATkgB+SAHJADckAOyAE5IAfkgByQA3JADsgBOSAH5IAckAP5OVA+cPuB0driT0ZrwclyNXxnfQ++HK2FRnsxPSAHYKJUC/eAkfwI7aHn0v6ghGAFbDGBTT/uwUmw0wNi/alSOrD4cLkW/stOaNcL9dWDZ5bM2StfmUvXV6I9uG20FdgBcgAmwMb484trNjPlWngJLPWH2ja9lCpm22gtfJFBPXgoXJmaWTafL6wVeNiU+mYcACtHppcN2CFHYKoNbtmeAsy4oxjE1MzymmbgzQyl6toOgB0wRJ6i2bpitmVLcUPdhnlsMlzDW4k2OeDDgfOfrBgwBbABdV+A5jLjocnQfHpj1Uce0pADTQfAFNhqzNbZLj+waOfbgmbm5hio4NkBzNTkLNMPinyagQ9/2uRAlg6AsUyXHuvPmUMzdihc1QfALIdS2nAAjHE9nclz6nI1OIU7RrOzgOuXA3ikF83S1eCU9w+IXNPoOXO/hlP9gDVy5xVoLjeeOFaXy3Kgrw6MP7e4Cqi9LjtGa0EFovjKUpsc6KcDYC6apavhXm+zNNfP+B5emxzopwNgDkCDQX9A14J3Iapnz/0cSvUFB8BcBHQteFdAi4mhdyAToKM1TC0cenOUwPA5gOfRjSXHl95maAE9fCBspYjJn4DeSqNa4FwEdIEHfyumLqC34qgWOKehAnp67pJ5/NzkpvYP/jtb4OEtXupDA/RcOG/u+90PNr0f/PCEEdTFAXtogH7/xuymYcYNcPjKaSOoBXTqpx68Q3xb6AK0oPY9GoOrR/5SA5xsSEHfKbsCLah9j8hg6pG/JJepjynoO10fQAtq36MyeHrkLzXAyYYU9J2qL6AJ9cc3r/sOUXoD4AD5S3KZ+piCvnNLC3Tl4svRB0OAbO9PX3zZ/K++4DtM6eXsAPlLDXCyIQV955UW6G/84UnzyFvPmEfevHv/zun9vsOUXs4OkL8kl6mPKeg7r7RA49Hdvb99wtzz3HfNPc8+ftfuO07p5esA+UsNcLIhBX2n5QJ0N6h9xzloehcuXDA7d+408/PzPYU2OztrxsfHe66/kSj6hR50+7GRvySXqY8p6Dt4V6A7Qe07zkHTE9CpUV5vOMhAt4M6SwAnJibMyMhItKOMjTPg4cOHo/Pbt29vzl6Ab8eOHQbndu/eber1usE5avAcdDDzYeblNeqzD2jgGs53mqE3Gx+0O8WDWBEf40E9+xzzRP6Mjeeg62sjf44Yx80p6CtA6viYoQF0Emrq+37FgBJADOy+ffsicDmgBPD48ePNemhjDzLqAnC8Eg60Yxltsdn1CDqvdQJ6o/js9szD7ocxMA+8smznYS852AbXseGVbaITHv4hfzGRjiUKeoitRaIT0GNvTphe9m+9XrnrtyBf+8X3WvrweWADY+vaUOC8PeBoY8+mNuyo20nT1oC+vQZOHjOWTlrJ+Ox6neKZm5uL4kZdbDa4dmz2ecbh+5X8OWIcN6eg70DbAf3AqR/33M387Vt3AY3ZOssNAPAtmDNeEjB7wG14EJfdnjoEHnV5Dq+c2XGedaCR7M/O19bvFJ8dk12ffaOva9euRX3yHF9R384PfeMYbVDHjtOOy6VM/mIiHUsUdAmqXdtuQD/1/pR58I2JaK9c/H3U/LFzh5rnfvO3cyYPoJmHPTMlZ0D72IYHbQFEu7dkQoH62GxokgAnjxmT/ZqMz57h7Zi6xdPpSYYdm90nyrZ28lraY/LniHHcnIJpA+rUrhvQP5z5pfnmq09F+773Xowkvv36081zRz5+o+9A24MPYJJraFzHhleuUZMDbMOOuoAbdZNv8dDgDE04qY827WZCXOfNkoyvE9Cd4kF7aFEP9RAP8rGBtsvIB9fZJjLDwz/kLybSsURBD7G1SHQD+taduvliKYj24M76/6l3Mzq+Zb5YumUWv1rqO9AEy377RUKcMQFm8m03CTTq4xw1bDABJM8fPXo0Ah112QeAwnU8TUFfgMneNoqP9ZMxdYqnkx7P84br1N6OzaVM/hwxjptT0CWodm27Af3o9E+b6+Nd7zwfNb//xI+a5/AD/zyXHHY+BJrA2NdUdneA/MVEOpYo6B5aq0I3oF/5+/nmD49O/vODqOGvrr5lnr1yOtpn/nNVQLfauWWPyJ8jxnFzCvp2rBvQr13/i3nhr29H+9nPPoy6fmn2T+bo1bPRjraDMkP79kV6rQ6Qv5hIxxIFW7txP+oG9DAtOdydkEI3B8ifI8Zxcwp26zTNtW5A96KnGboXl4a/DvmLiXQsUdC3Ne2A/vorTxo8g+5l33PhWPNDIr8Cz/qLFd8eSG9jB8ifI8Zxcwpu3PXmarQD2gYzbXlzUaj2oDtA/mIiHUsU9J24gPbt6NbUI3+OGMfNKejbLgHt29GtqUf+YiIdSxT0bdfVm5+1XQOnXWqg3fY/7vEdpvRydoD8OWIcN6dgFnn97KMzBj868rWf+MefswhTmjk6QP5iIh1LFMwxJ3VdYAfInyPGcXMKFthTpZ6jA+QvJtKxRMEcc1LXBXaA/DliHDenYIE9Veo5OkD+YiIdSxTMMSd1XVAH+GfdRmvBgiPGcfOy/pJsQXHKP+1M/vCmgM5/YIsaQTZAV4NTWHboj9cXFav88s7kj9eP1oIKgD54Zim/zNRzIR0Ac9FnuGq4N14EO5ZK+4MSRHcdq68U0lUlnZsDjx1ZjIAGg44YtzaP7pJaaD5fWMstOXVcLAfAGrlrpdHDUbmxjp6aWS6Wq8o2NweOTC9HQIM9Dwi3SnDZMTYZruHZoDY5kKUDYOyhyTCb5QbRHq2G1/EWoFk6y6GUNhwAY2CtXA0vkz/vr6UDiw9zTYPng9rkQBYOnP9kpbl2BnPeQbYFy9VwClDj7eDTG6tZ5CPNAjsApsYOhauN2XnKZi+TcqlituFtgFBrpi4wfZ5Tx8xswZzdUiN5Z9hQA+yXZu4YfVD0PLoFkgM7YAgsNWbmy2AsyV2mxw2oo+UHgsDTDwSl59QFItExVbDy8+nl5tOMBszZLzO63RnRB8XG0w/eYd//dd0889pS9NuPy/9eNdg1gzuO/pA3Jwf4bQbYACPkpQHy5cw/AHYDOXkNz6n55YsdqMrrb6Pyob0PYMb719pJOF2P17+ECSoIFj89Xf/5abCgQW0/qEXwhRxEk1413DvwELveBGovB+SAHJADckAOyAE5IAfkgByQA3JADsgBOSAH5IAckANyQA7IgUF34P+zw/0LtIt0cwAAAABJRU5ErkJggg==;" parent="1" vertex="1">
                    <mxGeometry x="880" y="211.5" width="180" height="92" as="geometry"/>
                </mxCell>
                <mxCell id="6" value="" style="endArrow=classic;html=1;entryX=0;entryY=0.5;entryDx=0;entryDy=0;exitX=1;exitY=0.5;exitDx=0;exitDy=0;" parent="1" source="3" target="5" edge="1">
                    <mxGeometry width="50" height="50" relative="1" as="geometry">
                        <mxPoint x="410" y="400" as="sourcePoint"/>
                        <mxPoint x="460" y="350" as="targetPoint"/>
                    </mxGeometry>
                </mxCell>
                <mxCell id="10" value="GitHub Pages" style="text;html=1;strokeColor=none;fillColor=none;align=center;verticalAlign=middle;whiteSpace=wrap;rounded=0;" parent="1" vertex="1">
                    <mxGeometry x="430" y="190" width="100" height="30" as="geometry"/>
                </mxCell>
                <mxCell id="11" value="" style="endArrow=classic;html=1;entryX=0;entryY=0.5;entryDx=0;entryDy=0;edgeStyle=elbowEdgeStyle;" parent="1" source="2" target="3" edge="1">
                    <mxGeometry width="50" height="50" relative="1" as="geometry">
                        <mxPoint x="790" y="320" as="sourcePoint"/>
                        <mxPoint x="840" y="270" as="targetPoint"/>
                        <Array as="points">
                            <mxPoint x="620" y="300"/>
                        </Array>
                    </mxGeometry>
                </mxCell>
                <mxCell id="14" style="edgeStyle=elbowEdgeStyle;html=1;" parent="1" source="12" target="2" edge="1">
                    <mxGeometry relative="1" as="geometry"/>
                </mxCell>
                <mxCell id="12" value="Desktop and Mobile" style="strokeColor=#dddddd;shadow=1;strokeWidth=1;rounded=1;absoluteArcSize=1;arcSize=2;labelPosition=center;verticalLabelPosition=middle;align=center;verticalAlign=bottom;spacingLeft=0;fontColor=#999999;fontSize=12;whiteSpace=wrap;spacingBottom=2;" parent="1" vertex="1">
                    <mxGeometry x="220" y="207.5" width="70" height="100" as="geometry"/>
                </mxCell>
                <mxCell id="13" value="" style="sketch=0;dashed=0;connectable=0;html=1;fillColor=#757575;strokeColor=none;shape=mxgraph.gcp2.desktop_and_mobile;part=1;" parent="12" vertex="1">
                    <mxGeometry x="0.5" width="50" height="33" relative="1" as="geometry">
                        <mxPoint x="-25" y="18.5" as="offset"/>
                    </mxGeometry>
                </mxCell>
            </root>
        </mxGraphModel>
    </diagram>
</mxfile>